name Walk6.mot
datacolumns 19
datarows 22
range 1.82800000 1.84900000
endheader

                time	   L_ground_force_vx	   L_ground_force_vy	   L_ground_force_vz	   L_ground_force_px	   L_ground_force_py	   L_ground_force_pz	   R_ground_force_vx	   R_ground_force_vy	   R_ground_force_vz	   R_ground_force_px	   R_ground_force_py	   R_ground_force_pz	   L_ground_torque_x	   L_ground_torque_y	   L_ground_torque_z	   R_ground_torque_x	   R_ground_torque_y	   R_ground_torque_z	
          1.82800000	         -3.89564927	        573.99330551	        -48.82728706	          0.14669287	          0.00000000	          0.04319359	          0.00000000	          0.00000000	          0.00000000	          0.00000000	          0.00000000	          0.00000000	          0.00000000	          2.98827221	          0.00000000	          0.00000000	          0.00000000	          0.00000000	
          1.82900000	         -3.51633212	        572.71301499	        -48.72638127	          0.14727850	          0.00000000	          0.04320803	          0.00000000	          0.00000000	          0.00000000	          0.00000000	          0.00000000	          0.00000000	          0.00000000	          2.96288425	          0.00000000	          0.00000000	          0.00000000	          0.00000000	
          1.83000000	         -3.14744778	        571.45701903	        -48.59089380	          0.14780399	          0.00000000	          0.04323904	          0.00000000	          0.00000000	          0.00000000	          0.00000000	          0.00000000	          0.00000000	          0.00000000	          2.92085902	          0.00000000	          0.00000000	          0.00000000	          0.00000000	
          1.83100000	         -2.78314772	        570.16251838	        -48.45772704	          0.14824909	          0.00000000	          0.04324993	          0.00000000	          0.00000000	          0.00000000	          0.00000000	          0.00000000	          0.00000000	          0.00000000	          2.87483571	          0.00000000	          0.00000000	          0.00000000	          0.00000000	
          1.83200000	         -2.42052470	        568.81370728	        -48.36682260	          0.14862829	          0.00000000	          0.04321784	          0.00000000	          0.00000000	          0.00000000	          0.00000000	          0.00000000	          0.00000000	          0.00000000	          2.84118409	          0.00000000	          0.00000000	          0.00000000	          0.00000000	
          1.83300000	         -2.06104584	        567.43878783	        -48.32993570	          0.14896130	          0.00000000	          0.04314458	          0.00000000	          0.00000000	          0.00000000	          0.00000000	          0.00000000	          0.00000000	          0.00000000	          2.83025181	          0.00000000	          0.00000000	          0.00000000	          0.00000000	
          1.83400000	         -1.70810488	        566.09786893	        -48.32369249	          0.14926488	          0.00000000	          0.04305736	          0.00000000	          0.00000000	          0.00000000	          0.00000000	          0.00000000	          0.00000000	          0.00000000	          2.83956811	          0.00000000	          0.00000000	          0.00000000	          0.00000000	
          1.83500000	         -1.35973654	        564.85958551	        -48.31689561	          0.14956675	          0.00000000	          0.04299726	          0.00000000	          0.00000000	          0.00000000	          0.00000000	          0.00000000	          0.00000000	          0.00000000	          2.85862922	          0.00000000	          0.00000000	          0.00000000	          0.00000000	
          1.83600000	         -1.00796325	        563.76573787	        -48.29722863	          0.14991221	          0.00000000	          0.04299093	          0.00000000	          0.00000000	          0.00000000	          0.00000000	          0.00000000	          0.00000000	          0.00000000	          2.87873903	          0.00000000	          0.00000000	          0.00000000	          0.00000000	
          1.83700000	         -0.64974883	        562.81505207	        -48.27125548	          0.15033232	          0.00000000	          0.04303443	          0.00000000	          0.00000000	          0.00000000	          0.00000000	          0.00000000	          0.00000000	          0.00000000	          2.89622001	          0.00000000	          0.00000000	          0.00000000	          0.00000000	
          1.83800000	         -0.29217531	        561.98278361	        -48.24902815	          0.15081816	          0.00000000	          0.04310544	          0.00000000	          0.00000000	          0.00000000	          0.00000000	          0.00000000	          0.00000000	          0.00000000	          2.91040350	          0.00000000	          0.00000000	          0.00000000	          0.00000000	
          1.83900000	          0.05584793	        561.24938843	        -48.23681187	          0.15134687	          0.00000000	          0.04318631	          0.00000000	          0.00000000	          0.00000000	          0.00000000	          0.00000000	          0.00000000	          0.00000000	          2.92387834	          0.00000000	          0.00000000	          0.00000000	          0.00000000	
          1.84000000	          0.38666469	        560.60872057	        -48.23953888	          0.15191014	          0.00000000	          0.04327409	          0.00000000	          0.00000000	          0.00000000	          0.00000000	          0.00000000	          0.00000000	          0.00000000	          2.94212476	          0.00000000	          0.00000000	          0.00000000	          0.00000000	
          1.84100000	          0.68847111	        560.05237984	        -48.25704361	          0.15249595	          0.00000000	          0.04336992	          0.00000000	          0.00000000	          0.00000000	          0.00000000	          0.00000000	          0.00000000	          0.00000000	          2.96769922	          0.00000000	          0.00000000	          0.00000000	          0.00000000	
          1.84200000	          0.94925692	        559.55446353	        -48.28176821	          0.15306897	          0.00000000	          0.04347239	          0.00000000	          0.00000000	          0.00000000	          0.00000000	          0.00000000	          0.00000000	          0.00000000	          2.99692653	          0.00000000	          0.00000000	          0.00000000	          0.00000000	
          1.84300000	          1.16770944	        559.08569438	        -48.30822494	          0.15360551	          0.00000000	          0.04358463	          0.00000000	          0.00000000	          0.00000000	          0.00000000	          0.00000000	          0.00000000	          0.00000000	          3.02405522	          0.00000000	          0.00000000	          0.00000000	          0.00000000	
          1.84400000	          1.35212685	        558.64368688	        -48.33551808	          0.15413349	          0.00000000	          0.04370817	          0.00000000	          0.00000000	          0.00000000	          0.00000000	          0.00000000	          0.00000000	          0.00000000	          3.04384051	          0.00000000	          0.00000000	          0.00000000	          0.00000000	
          1.84500000	          1.50721099	        558.25042752	        -48.36092870	          0.15471221	          0.00000000	          0.04381784	          0.00000000	          0.00000000	          0.00000000	          0.00000000	          0.00000000	          0.00000000	          0.00000000	          3.05084381	          0.00000000	          0.00000000	          0.00000000	          0.00000000	
          1.84600000	          1.63357866	        557.90715697	        -48.38265380	          0.15537005	          0.00000000	          0.04386105	          0.00000000	          0.00000000	          0.00000000	          0.00000000	          0.00000000	          0.00000000	          0.00000000	          3.04513032	          0.00000000	          0.00000000	          0.00000000	          0.00000000	
          1.84700000	          1.74149027	        557.56775905	        -48.40599614	          0.15606827	          0.00000000	          0.04380504	          0.00000000	          0.00000000	          0.00000000	          0.00000000	          0.00000000	          0.00000000	          0.00000000	          3.03784748	          0.00000000	          0.00000000	          0.00000000	          0.00000000	
          1.84800000	          1.84776851	        557.16502445	        -48.44180751	          0.15673603	          0.00000000	          0.04366956	          0.00000000	          0.00000000	          0.00000000	          0.00000000	          0.00000000	          0.00000000	          0.00000000	          3.04325722	          0.00000000	          0.00000000	          0.00000000	          0.00000000	
          1.84900000	          1.95802544	        556.65638905	        -48.49775858	          0.15732955	          0.00000000	          0.04349620	          0.00000000	          0.00000000	          0.00000000	          0.00000000	          0.00000000	          0.00000000	          0.00000000	          3.06672271	          0.00000000	          0.00000000	          0.00000000	          0.00000000	
